<svg id="surface1" xmlns="http://www.w3.org/2000/svg" xmlns:xlink="http://www.w3.org/1999/xlink" width="76.305" height="100" viewBox="0 0 76.305 100">
  <defs>
    <clipPath id="clip-path">
      <path id="Path_1" data-name="Path 1" d="M34.915,88.976l.026.026c-.278-.232-.8-.674-1.513-1.3-1.184-1.04-2.506-2.229-3.927-3.556C25.445,80.36,21.384,76.233,17.591,71.9c-6.027-6.876-10.8-13.613-13.87-19.985C1.3,46.871,0,42.146,0,37.8,0,15.929,16.475,0,38.152,0S76.3,15.929,76.3,37.8c0,4.339-1.292,9.053-3.706,14.092-3.062,6.382-7.844,13.124-13.875,20.005-3.788,4.328-7.844,8.451-11.9,12.239-1.42,1.323-2.738,2.512-3.927,3.551-.715.623-1.23,1.065-1.472,1.266A5.128,5.128,0,0,1,34.915,88.976Zm-.026,3.067a4.51,4.51,0,0,1,6.531,0l2.8,2.99c2.074,2.213.659,4.967-2.6,4.967H34.683c-3.242,0-4.673-2.748-2.6-4.967Zm0,0"/>
    </clipPath>
  </defs>
  <g id="Group_1" data-name="Group 1" clip-path="url(#clip-path)">
    <rect id="Rectangle_1" data-name="Rectangle 1" width="76.418" height="100.134" fill="#5b37b7"/>
  </g>
</svg>
